<?xml version="1.0" encoding="UTF-8"?>
<!DOCTYPE svg PUBLIC "-//W3C//DTD SVG 1.1//EN" "http://www.w3.org/Graphics/SVG/1.1/DTD/svg11.dtd">
<svg xmlns="http://www.w3.org/2000/svg" version="1.1" width="1032px" height="1032px" style="shape-rendering:geometricPrecision; text-rendering:geometricPrecision; image-rendering:optimizeQuality; fill-rule:evenodd; clip-rule:evenodd" xmlns:xlink="http://www.w3.org/1999/xlink">
<g><path style="opacity:0.999" fill="#1d4ed8" d="M 279.5,-0.5 C 436.833,-0.5 594.167,-0.5 751.5,-0.5C 857.449,11.3586 937.282,63.0253 991,154.5C 1011.4,192.475 1023.57,232.808 1027.5,275.5C 1027.5,432.833 1027.5,590.167 1027.5,747.5C 1015.64,853.449 963.975,933.282 872.5,987C 834.525,1007.4 794.192,1019.57 751.5,1023.5C 594.167,1023.5 436.833,1023.5 279.5,1023.5C 173.551,1011.64 93.7175,959.975 40,868.5C 19.5955,830.525 7.4288,790.192 3.5,747.5C 3.5,590.167 3.5,432.833 3.5,275.5C 15.3586,169.551 67.0253,89.7175 158.5,36C 196.475,15.5955 236.808,3.4288 279.5,-0.5 Z"/></g>
<g><path style="opacity:1" fill="#fefefe" d="M 314.5,203.5 C 447.167,203.333 579.834,203.5 712.5,204C 729.676,207.507 740.842,217.673 746,234.5C 746.667,418.833 746.667,603.167 746,787.5C 738.752,810.878 722.918,821.378 698.5,819C 691.824,817.317 685.824,814.317 680.5,810C 624.988,756.487 569.488,702.987 514,649.5C 458.208,702.958 402.708,756.791 347.5,811C 326.759,824.178 307.926,822.011 291,804.5C 286.67,798.505 284.003,791.839 283,784.5C 282.333,601.5 282.333,418.5 283,235.5C 287.656,219.011 298.156,208.344 314.5,203.5 Z"/></g>
<g><path style="opacity:0.004" fill="#000000" d="M 1027.5,254.5 C 1028.83,255.167 1028.83,255.167 1027.5,254.5 Z"/></g>
<g><path style="opacity:0.008" fill="#757575" d="M 1028.5,264.5 C 1028.17,264.5 1027.83,264.5 1027.5,264.5C 1027.34,261.813 1027.5,259.146 1028,256.5C 1028.23,259.095 1028.73,261.595 1029.5,264C 1029.27,264.399 1028.94,264.565 1028.5,264.5 Z"/></g>
<g><path style="opacity:0.024" fill="#545454" d="M 3.5,272.5 C 2.83333,272.833 2.16667,273.167 1.5,273.5C 1.75642,271.208 1.42308,269.041 0.5,267C 2.15529,264.493 2.98862,261.659 3,258.5C 3.49915,263.155 3.66582,267.821 3.5,272.5 Z"/></g>
<g><path style="opacity:0.004" fill="#fefffe" d="M 1.5,277.5 C 1.44312,278.609 1.10978,279.609 0.5,280.5C 0.166667,280.5 -0.166667,280.5 -0.5,280.5C -0.5,279.833 -0.5,279.167 -0.5,278.5C 0.166667,278.167 0.833333,277.833 1.5,277.5 Z"/></g>
<g><path style="opacity:0.02" fill="#767676" d="M -0.5,389.5 C 0.905037,391.225 1.40504,393.225 1,395.5C 0.617425,394.944 0.117425,394.611 -0.5,394.5C -0.5,392.833 -0.5,391.167 -0.5,389.5 Z"/></g>
<g><path style="opacity:0.028" fill="#171717" d="M 1027.5,264.5 C 1027.83,264.5 1028.17,264.5 1028.5,264.5C 1029.07,271.619 1030.07,278.619 1031.5,285.5C 1031.5,286.833 1031.5,288.167 1031.5,289.5C 1030.17,290.167 1030.17,290.833 1031.5,291.5C 1031.5,291.833 1031.5,292.167 1031.5,292.5C 1030.17,292.833 1030.17,293.167 1031.5,293.5C 1031.5,440.5 1031.5,587.5 1031.5,734.5C 1030.17,734.833 1030.17,735.167 1031.5,735.5C 1031.5,738.5 1031.5,741.5 1031.5,744.5C 1030.75,748.852 1030.09,753.352 1029.5,758C 1030.29,760.024 1029.96,762.024 1028.5,764C 1028.83,764.333 1029.17,764.667 1029.5,765C 1028.74,767.069 1028.24,769.236 1028,771.5C 1027.5,763.507 1027.33,755.507 1027.5,747.5C 1027.5,590.167 1027.5,432.833 1027.5,275.5C 1027.5,271.833 1027.5,268.167 1027.5,264.5 Z"/></g>
<g><path style="opacity:0.02" fill="#747474" d="M -0.5,534.5 C 0.267389,535.172 0.934056,536.005 1.5,537C 1.98892,538.552 1.32226,539.719 -0.5,540.5C -0.5,538.5 -0.5,536.5 -0.5,534.5 Z"/></g>
<g><path style="opacity:0.024" fill="#5a5a5a" d="M -0.5,549.5 C 0.267389,550.172 0.934056,551.005 1.5,552C 0.359452,552.741 0.359452,553.575 1.5,554.5C 1.04311,555.298 0.376442,555.631 -0.5,555.5C -0.5,553.5 -0.5,551.5 -0.5,549.5 Z"/></g>
<g><path style="opacity:0.098" fill="#151515" d="M 3.5,272.5 C 3.5,273.5 3.5,274.5 3.5,275.5C 3.5,432.833 3.5,590.167 3.5,747.5C 3.5,753.167 3.5,758.833 3.5,764.5C 2.83333,764.833 2.16667,765.167 1.5,765.5C 1.5,764.833 1.5,764.167 1.5,763.5C 2.83333,762.833 2.83333,762.167 1.5,761.5C 1.16197,758.989 1.16197,756.655 1.5,754.5C 1.00569,752.974 0.339027,751.641 -0.5,750.5C -0.5,750.167 -0.5,749.833 -0.5,749.5C 0.833333,747.5 0.833333,745.5 -0.5,743.5C -0.5,742.833 -0.5,742.167 -0.5,741.5C 0.833333,741.167 0.833333,740.833 -0.5,740.5C -0.5,738.5 -0.5,736.5 -0.5,734.5C 0.833333,733.833 0.833333,733.167 -0.5,732.5C -0.5,710.833 -0.5,689.167 -0.5,667.5C 0.833333,667.167 0.833333,666.833 -0.5,666.5C -0.5,664.167 -0.5,661.833 -0.5,659.5C 0.833333,659.167 0.833333,658.833 -0.5,658.5C -0.5,655.833 -0.5,653.167 -0.5,650.5C 0.649912,651.85 1.31658,651.684 1.5,650C 1.10099,648.272 0.434327,646.772 -0.5,645.5C -0.5,615.5 -0.5,585.5 -0.5,555.5C 0.376442,555.631 1.04311,555.298 1.5,554.5C 0.359452,553.575 0.359452,552.741 1.5,552C 0.934056,551.005 0.267389,550.172 -0.5,549.5C -0.5,548.167 -0.5,546.833 -0.5,545.5C 0.833333,545.167 0.833333,544.833 -0.5,544.5C -0.5,543.167 -0.5,541.833 -0.5,540.5C 1.32226,539.719 1.98892,538.552 1.5,537C 0.934056,536.005 0.267389,535.172 -0.5,534.5C -0.5,493.5 -0.5,452.5 -0.5,411.5C 0.833333,411.167 0.833333,410.833 -0.5,410.5C -0.5,408.167 -0.5,405.833 -0.5,403.5C 0.833333,403.167 0.833333,402.833 -0.5,402.5C -0.5,399.833 -0.5,397.167 -0.5,394.5C 0.117425,394.611 0.617425,394.944 1,395.5C 1.40504,393.225 0.905037,391.225 -0.5,389.5C -0.5,357.5 -0.5,325.5 -0.5,293.5C 0.833333,293.167 0.833333,292.833 -0.5,292.5C -0.5,291.833 -0.5,291.167 -0.5,290.5C 0.833333,289.5 0.833333,288.5 -0.5,287.5C -0.5,287.167 -0.5,286.833 -0.5,286.5C 0.833333,285.5 0.833333,284.5 -0.5,283.5C -0.5,283.167 -0.5,282.833 -0.5,282.5C 0.338246,282.158 0.67158,281.492 0.5,280.5C 1.10978,279.609 1.44312,278.609 1.5,277.5C 1.07418,275.861 1.07418,274.528 1.5,273.5C 2.16667,273.167 2.83333,272.833 3.5,272.5 Z"/></g>
<g><path style="opacity:0.02" fill="#767676" d="M -0.5,645.5 C 0.434327,646.772 1.10099,648.272 1.5,650C 1.31658,651.684 0.649912,651.85 -0.5,650.5C -0.5,648.833 -0.5,647.167 -0.5,645.5 Z"/></g>
<g><path style="opacity:0.004" fill="#fefffe" d="M 1.5,761.5 C 2.83333,762.167 2.83333,762.833 1.5,763.5C 0.493667,763.062 0.493667,762.396 1.5,761.5 Z"/></g>
<g><path style="opacity:0.012" fill="#7c7c7c" d="M 3.5,764.5 C 3.66331,766.857 3.49665,769.19 3,771.5C 2.5,771 2,770.5 1.5,770C 2.72793,768.51 2.72793,767.01 1.5,765.5C 2.16667,765.167 2.83333,764.833 3.5,764.5 Z"/></g>
<g><path style="opacity:0.004" fill="#000000" d="M 1027.5,772.5 C 1028.83,773.167 1028.83,773.167 1027.5,772.5 Z"/></g>
<g><path style="opacity:0.004" fill="#fefffe" d="M 1027.5,774.5 C 1028.83,775.167 1028.83,775.167 1027.5,774.5 Z"/></g>
<g><path style="opacity:0.004" fill="#fefffe" d="M 235.5,1023.5 C 236.833,1024.17 236.833,1024.17 235.5,1023.5 Z"/></g>
<g><path style="opacity:0.195" fill="#111111" d="M 279.5,1023.5 C 436.833,1023.5 594.167,1023.5 751.5,1023.5C 757.5,1023.5 763.5,1023.5 769.5,1023.5C 769.804,1024.15 770.137,1024.82 770.5,1025.5C 767.07,1026.34 764.07,1027.68 761.5,1029.5C 756.173,1029.65 750.84,1030.32 745.5,1031.5C 744.833,1031.5 744.167,1031.5 743.5,1031.5C 742.833,1030.17 742.167,1030.17 741.5,1031.5C 740.167,1031.5 738.833,1031.5 737.5,1031.5C 737.167,1030.17 736.833,1030.17 736.5,1031.5C 735.167,1031.5 733.833,1031.5 732.5,1031.5C 731.5,1030.17 730.5,1030.17 729.5,1031.5C 729.167,1031.5 728.833,1031.5 728.5,1031.5C 727.833,1030.17 727.167,1030.17 726.5,1031.5C 726.167,1031.5 725.833,1031.5 725.5,1031.5C 725.167,1030.17 724.833,1030.17 724.5,1031.5C 723.833,1031.5 723.167,1031.5 722.5,1031.5C 721.5,1030.17 720.5,1030.17 719.5,1031.5C 718.5,1031.5 717.5,1031.5 716.5,1031.5C 715.833,1030.17 715.167,1030.17 714.5,1031.5C 713.5,1031.5 712.5,1031.5 711.5,1031.5C 711.167,1030.17 710.833,1030.17 710.5,1031.5C 709.5,1031.5 708.5,1031.5 707.5,1031.5C 707.167,1030.17 706.833,1030.17 706.5,1031.5C 704.833,1031.5 703.167,1031.5 701.5,1031.5C 701.167,1030.17 700.833,1030.17 700.5,1031.5C 698.833,1031.5 697.167,1031.5 695.5,1031.5C 694.833,1030.17 694.167,1030.17 693.5,1031.5C 693.167,1031.5 692.833,1031.5 692.5,1031.5C 692.167,1030.17 691.833,1030.17 691.5,1031.5C 691.167,1031.5 690.833,1031.5 690.5,1031.5C 690.167,1030.17 689.833,1030.17 689.5,1031.5C 688.5,1031.5 687.5,1031.5 686.5,1031.5C 686.167,1030.17 685.833,1030.17 685.5,1031.5C 684.833,1031.5 684.167,1031.5 683.5,1031.5C 683.167,1030.17 682.833,1030.17 682.5,1031.5C 682.167,1031.5 681.833,1031.5 681.5,1031.5C 681.167,1030.17 680.833,1030.17 680.5,1031.5C 680.167,1031.5 679.833,1031.5 679.5,1031.5C 678.833,1030.17 678.167,1030.17 677.5,1031.5C 677.167,1031.5 676.833,1031.5 676.5,1031.5C 675.833,1030.17 675.167,1030.17 674.5,1031.5C 673.5,1031.5 672.5,1031.5 671.5,1031.5C 670.833,1030.17 670.167,1030.17 669.5,1031.5C 667.167,1031.5 664.833,1031.5 662.5,1031.5C 662.167,1030.17 661.833,1030.17 661.5,1031.5C 660.167,1031.5 658.833,1031.5 657.5,1031.5C 657.167,1030.17 656.833,1030.17 656.5,1031.5C 656.167,1031.5 655.833,1031.5 655.5,1031.5C 655.167,1030.17 654.833,1030.17 654.5,1031.5C 654.167,1031.5 653.833,1031.5 653.5,1031.5C 653.167,1030.17 652.833,1030.17 652.5,1031.5C 650.833,1031.5 649.167,1031.5 647.5,1031.5C 647.167,1030.17 646.833,1030.17 646.5,1031.5C 645.833,1031.5 645.167,1031.5 644.5,1031.5C 644.167,1030.17 643.833,1030.17 643.5,1031.5C 642.5,1031.5 641.5,1031.5 640.5,1031.5C 640.167,1030.17 639.833,1030.17 639.5,1031.5C 639.167,1031.5 638.833,1031.5 638.5,1031.5C 638.167,1030.17 637.833,1030.17 637.5,1031.5C 636.5,1031.5 635.5,1031.5 634.5,1031.5C 633.5,1030.17 632.5,1030.17 631.5,1031.5C 631.167,1031.5 630.833,1031.5 630.5,1031.5C 630.167,1030.17 629.833,1030.17 629.5,1031.5C 626.5,1031.5 623.5,1031.5 620.5,1031.5C 620.167,1030.17 619.833,1030.17 619.5,1031.5C 618.833,1031.5 618.167,1031.5 617.5,1031.5C 617.167,1030.17 616.833,1030.17 616.5,1031.5C 615.833,1031.5 615.167,1031.5 614.5,1031.5C 613.833,1030.17 613.167,1030.17 612.5,1031.5C 612.167,1031.5 611.833,1031.5 611.5,1031.5C 611.167,1030.17 610.833,1030.17 610.5,1031.5C 609.833,1031.5 609.167,1031.5 608.5,1031.5C 607.833,1030.17 607.167,1030.17 606.5,1031.5C 606.167,1031.5 605.833,1031.5 605.5,1031.5C 605.167,1030.17 604.833,1030.17 604.5,1031.5C 603.5,1031.5 602.5,1031.5 601.5,1031.5C 601.167,1030.17 600.833,1030.17 600.5,1031.5C 598.833,1031.5 597.167,1031.5 595.5,1031.5C 595.167,1030.17 594.833,1030.17 594.5,1031.5C 593.833,1031.5 593.167,1031.5 592.5,1031.5C 592.167,1030.17 591.833,1030.17 591.5,1031.5C 590.833,1031.5 590.167,1031.5 589.5,1031.5C 589.167,1030.17 588.833,1030.17 588.5,1031.5C 587.167,1031.5 585.833,1031.5 584.5,1031.5C 584.167,1030.17 583.833,1030.17 583.5,1031.5C 582.167,1031.5 580.833,1031.5 579.5,1031.5C 579.167,1030.17 578.833,1030.17 578.5,1031.5C 577.5,1031.5 576.5,1031.5 575.5,1031.5C 574.833,1030.17 574.167,1030.17 573.5,1031.5C 572.833,1031.5 572.167,1031.5 571.5,1031.5C 570.833,1030.17 570.167,1030.17 569.5,1031.5C 568.5,1031.5 567.5,1031.5 566.5,1031.5C 566.167,1030.17 565.833,1030.17 565.5,1031.5C 564.5,1031.5 563.5,1031.5 562.5,1031.5C 562.167,1030.17 561.833,1030.17 561.5,1031.5C 561.167,1031.5 560.833,1031.5 560.5,1031.5C 560.167,1030.17 559.833,1030.17 559.5,1031.5C 558.833,1031.5 558.167,1031.5 557.5,1031.5C 556.167,1030.17 554.833,1030.17 553.5,1031.5C 551.833,1031.5 550.167,1031.5 548.5,1031.5C 547.833,1030.17 547.167,1030.17 546.5,1031.5C 546.167,1031.5 545.833,1031.5 545.5,1031.5C 545.167,1030.17 544.833,1030.17 544.5,1031.5C 543.833,1031.5 543.167,1031.5 542.5,1031.5C 542.167,1030.17 541.833,1030.17 541.5,1031.5C 541.167,1031.5 540.833,1031.5 540.5,1031.5C 540.167,1030.17 539.833,1030.17 539.5,1031.5C 539.167,1031.5 538.833,1031.5 538.5,1031.5C 538.167,1030.17 537.833,1030.17 537.5,1031.5C 536.5,1031.5 535.5,1031.5 534.5,1031.5C 534.167,1030.17 533.833,1030.17 533.5,1031.5C 532.167,1031.5 530.833,1031.5 529.5,1031.5C 529.167,1030.17 528.833,1030.17 528.5,1031.5C 528.167,1031.5 527.833,1031.5 527.5,1031.5C 526.167,1030.17 524.833,1030.17 523.5,1031.5C 523.167,1031.5 522.833,1031.5 522.5,1031.5C 522.167,1030.17 521.833,1030.17 521.5,1031.5C 520.833,1031.5 520.167,1031.5 519.5,1031.5C 519.167,1030.17 518.833,1030.17 518.5,1031.5C 517.167,1031.5 515.833,1031.5 514.5,1031.5C 514.167,1030.17 513.833,1030.17 513.5,1031.5C 512.167,1031.5 510.833,1031.5 509.5,1031.5C 509.167,1030.17 508.833,1030.17 508.5,1031.5C 507.5,1031.5 506.5,1031.5 505.5,1031.5C 505.167,1030.17 504.833,1030.17 504.5,1031.5C 504.167,1031.5 503.833,1031.5 503.5,1031.5C 502.5,1030.17 501.5,1030.17 500.5,1031.5C 499.167,1031.5 497.833,1031.5 496.5,1031.5C 495.833,1030.17 495.167,1030.17 494.5,1031.5C 494.167,1031.5 493.833,1031.5 493.5,1031.5C 493.167,1030.17 492.833,1030.17 492.5,1031.5C 492.167,1031.5 491.833,1031.5 491.5,1031.5C 491.167,1030.17 490.833,1030.17 490.5,1031.5C 489.5,1031.5 488.5,1031.5 487.5,1031.5C 486.833,1030.17 486.167,1030.17 485.5,1031.5C 484.167,1031.5 482.833,1031.5 481.5,1031.5C 481.167,1030.17 480.833,1030.17 480.5,1031.5C 479.167,1031.5 477.833,1031.5 476.5,1031.5C 475.5,1030.17 474.5,1030.17 473.5,1031.5C 473.167,1031.5 472.833,1031.5 472.5,1031.5C 471.833,1030.17 471.167,1030.17 470.5,1031.5C 470.167,1031.5 469.833,1031.5 469.5,1031.5C 469.167,1030.17 468.833,1030.17 468.5,1031.5C 467.833,1031.5 467.167,1031.5 466.5,1031.5C 465.5,1030.17 464.5,1030.17 463.5,1031.5C 462.5,1031.5 461.5,1031.5 460.5,1031.5C 459.833,1030.17 459.167,1030.17 458.5,1031.5C 457.5,1031.5 456.5,1031.5 455.5,1031.5C 455.167,1030.17 454.833,1030.17 454.5,1031.5C 453.5,1031.5 452.5,1031.5 451.5,1031.5C 451.167,1030.17 450.833,1030.17 450.5,1031.5C 448.833,1031.5 447.167,1031.5 445.5,1031.5C 445.167,1030.17 444.833,1030.17 444.5,1031.5C 442.833,1031.5 441.167,1031.5 439.5,1031.5C 438.833,1030.17 438.167,1030.17 437.5,1031.5C 437.167,1031.5 436.833,1031.5 436.5,1031.5C 436.167,1030.17 435.833,1030.17 435.5,1031.5C 435.167,1031.5 434.833,1031.5 434.5,1031.5C 434.167,1030.17 433.833,1030.17 433.5,1031.5C 432.5,1031.5 431.5,1031.5 430.5,1031.5C 430.167,1030.17 429.833,1030.17 429.5,1031.5C 428.833,1031.5 428.167,1031.5 427.5,1031.5C 427.167,1030.17 426.833,1030.17 426.5,1031.5C 426.167,1031.5 425.833,1031.5 425.5,1031.5C 425.167,1030.17 424.833,1030.17 424.5,1031.5C 424.167,1031.5 423.833,1031.5 423.5,1031.5C 422.833,1030.17 422.167,1030.17 421.5,1031.5C 421.167,1031.5 420.833,1031.5 420.5,1031.5C 419.833,1030.17 419.167,1030.17 418.5,1031.5C 417.5,1031.5 416.5,1031.5 415.5,1031.5C 414.833,1030.17 414.167,1030.17 413.5,1031.5C 411.167,1031.5 408.833,1031.5 406.5,1031.5C 406.167,1030.17 405.833,1030.17 405.5,1031.5C 404.167,1031.5 402.833,1031.5 401.5,1031.5C 401.167,1030.17 400.833,1030.17 400.5,1031.5C 400.167,1031.5 399.833,1031.5 399.5,1031.5C 399.167,1030.17 398.833,1030.17 398.5,1031.5C 398.167,1031.5 397.833,1031.5 397.5,1031.5C 397.167,1030.17 396.833,1030.17 396.5,1031.5C 394.833,1031.5 393.167,1031.5 391.5,1031.5C 391.167,1030.17 390.833,1030.17 390.5,1031.5C 389.833,1031.5 389.167,1031.5 388.5,1031.5C 388.167,1030.17 387.833,1030.17 387.5,1031.5C 386.5,1031.5 385.5,1031.5 384.5,1031.5C 384.167,1030.17 383.833,1030.17 383.5,1031.5C 383.167,1031.5 382.833,1031.5 382.5,1031.5C 382.167,1030.17 381.833,1030.17 381.5,1031.5C 380.5,1031.5 379.5,1031.5 378.5,1031.5C 377.5,1030.17 376.5,1030.17 375.5,1031.5C 375.167,1031.5 374.833,1031.5 374.5,1031.5C 374.167,1030.17 373.833,1030.17 373.5,1031.5C 370.5,1031.5 367.5,1031.5 364.5,1031.5C 364.167,1030.17 363.833,1030.17 363.5,1031.5C 362.833,1031.5 362.167,1031.5 361.5,1031.5C 361.167,1030.17 360.833,1030.17 360.5,1031.5C 359.833,1031.5 359.167,1031.5 358.5,1031.5C 357.833,1030.17 357.167,1030.17 356.5,1031.5C 356.167,1031.5 355.833,1031.5 355.5,1031.5C 355.167,1030.17 354.833,1030.17 354.5,1031.5C 353.833,1031.5 353.167,1031.5 352.5,1031.5C 351.833,1030.17 351.167,1030.17 350.5,1031.5C 350.167,1031.5 349.833,1031.5 349.5,1031.5C 349.167,1030.17 348.833,1030.17 348.5,1031.5C 347.5,1031.5 346.5,1031.5 345.5,1031.5C 345.167,1030.17 344.833,1030.17 344.5,1031.5C 342.833,1031.5 341.167,1031.5 339.5,1031.5C 339.167,1030.17 338.833,1030.17 338.5,1031.5C 337.833,1031.5 337.167,1031.5 336.5,1031.5C 336.167,1030.17 335.833,1030.17 335.5,1031.5C 334.833,1031.5 334.167,1031.5 333.5,1031.5C 333.167,1030.17 332.833,1030.17 332.5,1031.5C 331.167,1031.5 329.833,1031.5 328.5,1031.5C 328.167,1030.17 327.833,1030.17 327.5,1031.5C 326.167,1031.5 324.833,1031.5 323.5,1031.5C 323.167,1030.17 322.833,1030.17 322.5,1031.5C 321.5,1031.5 320.5,1031.5 319.5,1031.5C 318.833,1030.17 318.167,1030.17 317.5,1031.5C 316.833,1031.5 316.167,1031.5 315.5,1031.5C 314.833,1030.17 314.167,1030.17 313.5,1031.5C 312.5,1031.5 311.5,1031.5 310.5,1031.5C 310.167,1030.17 309.833,1030.17 309.5,1031.5C 308.5,1031.5 307.5,1031.5 306.5,1031.5C 306.167,1030.17 305.833,1030.17 305.5,1031.5C 305.167,1031.5 304.833,1031.5 304.5,1031.5C 304.167,1030.17 303.833,1030.17 303.5,1031.5C 302.833,1031.5 302.167,1031.5 301.5,1031.5C 300.167,1030.17 298.833,1030.17 297.5,1031.5C 295.833,1031.5 294.167,1031.5 292.5,1031.5C 291.833,1030.17 291.167,1030.17 290.5,1031.5C 290.167,1031.5 289.833,1031.5 289.5,1031.5C 289.167,1030.17 288.833,1030.17 288.5,1031.5C 288.167,1031.5 287.833,1031.5 287.5,1031.5C 286.833,1030.17 286.167,1030.17 285.5,1031.5C 285.167,1031.5 284.833,1031.5 284.5,1031.5C 269.058,1029.9 253.391,1027.4 237.5,1024C 251.496,1023.5 265.496,1023.33 279.5,1023.5 Z"/></g>
<g><path style="opacity:0.122" fill="#282828" d="M 769.5,1023.5 C 777.507,1023.33 785.507,1023.5 793.5,1024C 782.938,1026.34 772.271,1028.18 761.5,1029.5C 764.07,1027.68 767.07,1026.34 770.5,1025.5C 770.137,1024.82 769.804,1024.15 769.5,1023.5 Z"/></g>
<g><path style="opacity:0.004" fill="#000000" d="M 795.5,1023.5 C 796.833,1024.17 796.833,1024.17 795.5,1023.5 Z"/></g>
<g><path style="opacity:0.004" fill="#fefffe" d="M 16.5,1031.5 C 15.8333,1030.17 15.8333,1030.17 16.5,1031.5 Z"/></g>
<g><path style="opacity:0.004" fill="#000000" d="M 19.5,1031.5 C 18.8333,1030.17 18.8333,1030.17 19.5,1031.5 Z"/></g>
<g><path style="opacity:0.004" fill="#fefffe" d="M 23.5,1031.5 C 22.8333,1030.17 22.8333,1030.17 23.5,1031.5 Z"/></g>
<g><path style="opacity:0.004" fill="#fefffe" d="M 24.5,1031.5 C 25.1667,1030.17 25.8333,1030.17 26.5,1031.5C 25.8333,1031.5 25.1667,1031.5 24.5,1031.5 Z"/></g>
<g><path style="opacity:0.004" fill="#fefffe" d="M 28.5,1031.5 C 27.8333,1030.17 27.8333,1030.17 28.5,1031.5 Z"/></g>
<g><path style="opacity:0.004" fill="#fefffe" d="M 34.5,1031.5 C 33.8333,1030.17 33.8333,1030.17 34.5,1031.5 Z"/></g>
<g><path style="opacity:0.004" fill="#fefffe" d="M 36.5,1031.5 C 35.8333,1030.17 35.8333,1030.17 36.5,1031.5 Z"/></g>
<g><path style="opacity:0.004" fill="#000000" d="M 43.5,1031.5 C 42.8333,1030.17 42.8333,1030.17 43.5,1031.5 Z"/></g>
<g><path style="opacity:0.004" fill="#fefffe" d="M 49.5,1031.5 C 48.8333,1030.17 48.8333,1030.17 49.5,1031.5 Z"/></g>
<g><path style="opacity:0.004" fill="#fefffe" d="M 56.5,1031.5 C 55.8333,1030.17 55.8333,1030.17 56.5,1031.5 Z"/></g>
<g><path style="opacity:0.004" fill="#b8b8b8" d="M 57.5,1031.5 C 58.5,1030.17 59.5,1030.17 60.5,1031.5C 59.5,1031.5 58.5,1031.5 57.5,1031.5 Z"/></g>
<g><path style="opacity:0.004" fill="#000000" d="M 65.5,1031.5 C 64.8333,1030.17 64.8333,1030.17 65.5,1031.5 Z"/></g>
<g><path style="opacity:0.004" fill="#fefffe" d="M 67.5,1031.5 C 66.8333,1030.17 66.8333,1030.17 67.5,1031.5 Z"/></g>
<g><path style="opacity:0.004" fill="#fefffe" d="M 71.5,1031.5 C 70.8333,1030.17 70.8333,1030.17 71.5,1031.5 Z"/></g>
<g><path style="opacity:0.004" fill="#fefffe" d="M 75.5,1031.5 C 74.8333,1030.17 74.8333,1030.17 75.5,1031.5 Z"/></g>
<g><path style="opacity:0.004" fill="#fefffe" d="M 82.5,1031.5 C 81.8333,1030.17 81.8333,1030.17 82.5,1031.5 Z"/></g>
<g><path style="opacity:0.004" fill="#fefffe" d="M 86.5,1031.5 C 85.8333,1030.17 85.8333,1030.17 86.5,1031.5 Z"/></g>
<g><path style="opacity:0.004" fill="#fefffe" d="M 90.5,1031.5 C 89.8333,1030.17 89.8333,1030.17 90.5,1031.5 Z"/></g>
<g><path style="opacity:0.004" fill="#000000" d="M 94.5,1031.5 C 93.8333,1030.17 93.8333,1030.17 94.5,1031.5 Z"/></g>
<g><path style="opacity:0.004" fill="#fefffe" d="M 97.5,1031.5 C 98.1667,1030.17 98.8333,1030.17 99.5,1031.5C 98.8333,1031.5 98.1667,1031.5 97.5,1031.5 Z"/></g>
<g><path style="opacity:0.004" fill="#fefffe" d="M 102.5,1031.5 C 101.833,1030.17 101.833,1030.17 102.5,1031.5 Z"/></g>
<g><path style="opacity:0.004" fill="#fefffe" d="M 109.5,1031.5 C 110.167,1030.17 110.833,1030.17 111.5,1031.5C 110.833,1031.5 110.167,1031.5 109.5,1031.5 Z"/></g>
<g><path style="opacity:0.004" fill="#fefffe" d="M 122.5,1031.5 C 121.833,1030.17 121.833,1030.17 122.5,1031.5 Z"/></g>
<g><path style="opacity:0.004" fill="#fefffe" d="M 133.5,1031.5 C 134.167,1030.17 134.833,1030.17 135.5,1031.5C 134.833,1031.5 134.167,1031.5 133.5,1031.5 Z"/></g>
<g><path style="opacity:0.004" fill="#000000" d="M 139.5,1031.5 C 138.833,1030.17 138.833,1030.17 139.5,1031.5 Z"/></g>
<g><path style="opacity:0.004" fill="#fefffe" d="M 141.5,1031.5 C 140.833,1030.17 140.833,1030.17 141.5,1031.5 Z"/></g>
<g><path style="opacity:0.004" fill="#a2a2a2" d="M 142.5,1031.5 C 143.167,1030.17 143.833,1030.17 144.5,1031.5C 143.833,1031.5 143.167,1031.5 142.5,1031.5 Z"/></g>
<g><path style="opacity:0.004" fill="#000000" d="M 166.5,1031.5 C 165.833,1030.17 165.833,1030.17 166.5,1031.5 Z"/></g>
<g><path style="opacity:0.004" fill="#fefffe" d="M 175.5,1031.5 C 176.167,1030.17 176.833,1030.17 177.5,1031.5C 176.833,1031.5 176.167,1031.5 175.5,1031.5 Z"/></g>
<g><path style="opacity:0.004" fill="#fefffe" d="M 181.5,1031.5 C 180.833,1030.17 180.833,1030.17 181.5,1031.5 Z"/></g>
<g><path style="opacity:0.004" fill="#fefffe" d="M 186.5,1031.5 C 185.833,1030.17 185.833,1030.17 186.5,1031.5 Z"/></g>
<g><path style="opacity:0.004" fill="#fefffe" d="M 188.5,1031.5 C 187.833,1030.17 187.833,1030.17 188.5,1031.5 Z"/></g>
<g><path style="opacity:0.004" fill="#fefffe" d="M 190.5,1031.5 C 189.833,1030.17 189.833,1030.17 190.5,1031.5 Z"/></g>
<g><path style="opacity:0.004" fill="#fefffe" d="M 194.5,1031.5 C 193.833,1030.17 193.833,1030.17 194.5,1031.5 Z"/></g>
<g><path style="opacity:0.004" fill="#fefffe" d="M 203.5,1031.5 C 202.833,1030.17 202.833,1030.17 203.5,1031.5 Z"/></g>
<g><path style="opacity:0.004" fill="#fefffe" d="M 206.5,1031.5 C 207.5,1030.17 208.5,1030.17 209.5,1031.5C 208.5,1031.5 207.5,1031.5 206.5,1031.5 Z"/></g>
<g><path style="opacity:0.004" fill="#fefffe" d="M 211.5,1031.5 C 210.833,1030.17 210.833,1030.17 211.5,1031.5 Z"/></g>
<g><path style="opacity:0.004" fill="#000000" d="M 215.5,1031.5 C 214.833,1030.17 214.833,1030.17 215.5,1031.5 Z"/></g>
<g><path style="opacity:0.004" fill="#fefffe" d="M 220.5,1031.5 C 219.833,1030.17 219.833,1030.17 220.5,1031.5 Z"/></g>
<g><path style="opacity:0.004" fill="#fefffe" d="M 223.5,1031.5 C 222.833,1030.17 222.833,1030.17 223.5,1031.5 Z"/></g>
<g><path style="opacity:0.004" fill="#fefffe" d="M 238.5,1031.5 C 237.833,1030.17 237.833,1030.17 238.5,1031.5 Z"/></g>
<g><path style="opacity:0.004" fill="#fefffe" d="M 241.5,1031.5 C 240.833,1030.17 240.833,1030.17 241.5,1031.5 Z"/></g>
</svg>
